<svg width="52" height="52" viewBox="0 0 52 52" fill="none" xmlns="http://www.w3.org/2000/svg">
<g clip-path="url(#clip0_2_10987)">
<path d="M48.95 6.4502H3.05C1.64172 6.4502 0.5 7.59182 0.5 9.0002V43.0002C0.5 44.4084 1.64162 45.5502 3.05 45.5502H48.95C50.3583 45.5502 51.5 44.4085 51.5 43.0002V9.0002C51.5 7.59192 50.3584 6.4502 48.95 6.4502ZM49.8 43.0003C49.8 43.4697 49.4195 43.8502 48.95 43.8502H3.05C2.58054 43.8502 2.20003 43.4697 2.20003 43.0003V9.0002C2.20003 8.53074 2.58054 8.15023 3.05 8.15023H48.95C49.4195 8.15023 49.8 8.53074 49.8 9.0002V43.0003Z" fill="#2C742F"/>
<path d="M47.3239 9.85387C47.0993 9.83424 46.8761 9.90467 46.7035 10.0497L27.0939 26.5226C26.4614 27.0542 25.5384 27.0542 24.9059 26.5226L5.29654 10.0496C5.06395 9.85437 4.7448 9.79799 4.45942 9.90178C4.17404 10.0056 3.96566 10.2538 3.91286 10.5529C3.86007 10.8521 3.97084 11.1566 4.20342 11.3518L23.8129 27.8239C25.0768 28.888 26.9231 28.888 28.1871 27.8239L47.7965 11.3519C47.9692 11.207 48.0772 10.9994 48.0968 10.7748C48.1164 10.5501 48.046 10.3269 47.901 10.1543C47.7561 9.98147 47.5485 9.87349 47.3239 9.85387Z" fill="#2C742F"/>
<path d="M16.8483 27.706C16.5474 27.6388 16.2338 27.7398 16.0286 27.9699L4.12856 40.7199C3.91321 40.9405 3.83412 41.2604 3.92197 41.5559C4.00983 41.8514 4.25079 42.0761 4.55161 42.1433C4.85253 42.2104 5.1661 42.1094 5.37129 41.8793L17.2713 29.1293C17.4867 28.9088 17.5658 28.5888 17.4779 28.2934C17.3901 27.9979 17.1492 27.7731 16.8483 27.706Z" fill="#2C742F"/>
<path d="M35.9714 27.9699C35.7663 27.7398 35.4526 27.6388 35.1517 27.706C34.8508 27.7731 34.6099 27.9979 34.5221 28.2934C34.4342 28.5889 34.5133 28.9088 34.7287 29.1293L46.6287 41.8793C46.9514 42.2098 47.479 42.2221 47.8167 41.907C48.1545 41.5918 48.1788 41.0647 47.8714 40.7198L35.9714 27.9699Z" fill="#2C742F"/>
</g>
<defs>
<clipPath id="clip0_2_10987">
<rect width="51" height="51" fill="white" transform="translate(0.5 0.5)"/>
</clipPath>
</defs>
</svg>
