<svg width="14" height="14" viewBox="0 0 14 14" fill="none" xmlns="http://www.w3.org/2000/svg">
<path fill-rule="evenodd" clip-rule="evenodd" d="M11.6947 3.70495C11.8259 3.83622 11.8996 4.01424 11.8996 4.19985C11.8996 4.38547 11.8259 4.56348 11.6947 4.69475L6.0947 10.2948C5.96343 10.426 5.78541 10.4997 5.5998 10.4997C5.41418 10.4997 5.23617 10.426 5.1049 10.2948L2.3049 7.49475C2.17739 7.36273 2.10683 7.18591 2.10842 7.00237C2.11002 6.81883 2.18364 6.64326 2.31342 6.51348C2.44321 6.38369 2.61878 6.31007 2.80232 6.30848C2.98585 6.30688 3.16268 6.37744 3.2947 6.50495L5.5998 8.81005L10.7049 3.70495C10.8362 3.57372 11.0142 3.5 11.1998 3.5C11.3854 3.5 11.5634 3.57372 11.6947 3.70495Z" fill="#0E9F6E"/>
</svg>
